<svg width="60" height="57" viewBox="0 0 60 57" fill="none" xmlns="http://www.w3.org/2000/svg">
<g filter="url(#filter0_d_604_7771)">
<path d="M0.000976562 28.5C0.000976562 25.4692 3.61665 23.0233 4.46739 20.2584C5.37131 17.4403 3.93568 13.3461 5.69034 10.9533C7.445 8.56061 11.7519 8.66695 14.1446 6.96546C16.5373 5.26397 17.7071 1.06341 20.5784 0.159495C23.2901 -0.691251 26.7463 1.91416 29.7771 1.91416C32.8079 1.91416 36.264 -0.691251 38.9758 0.159495C41.7939 1.06341 43.0168 5.26397 45.4095 6.96546C47.8023 8.72012 52.1092 8.56061 53.8638 10.9533C55.5653 13.3461 54.1297 17.3871 55.0868 20.2584C55.9907 23.0233 59.5532 25.416 59.5532 28.5C59.5532 31.5307 55.9375 33.9766 55.0868 36.7416C54.1828 39.5597 55.6185 43.6539 53.8638 46.0466C52.1092 48.3861 47.8023 48.2798 45.4095 50.0345C43.0168 51.736 41.847 55.9365 38.9758 56.8404C36.2108 57.7443 32.8079 55.0858 29.7771 55.0858C26.7463 55.0858 23.2901 57.6912 20.5784 56.8404C17.7603 55.9365 16.5373 51.736 14.1446 50.0345C11.7519 48.2798 7.445 48.4393 5.69034 46.0466C3.98885 43.6539 5.42448 39.6128 4.46739 36.7416C3.61665 33.9766 0.000976562 31.5307 0.000976562 28.5Z" fill="#FF0000"/>
</g>
<defs>
<filter id="filter0_d_604_7771" x="-9.99902" y="-8.01123" width="79.5518" height="77.0391" filterUnits="userSpaceOnUse" color-interpolation-filters="sRGB">
<feFlood flood-opacity="0" result="BackgroundImageFix"/>
<feColorMatrix in="SourceAlpha" type="matrix" values="0 0 0 0 0 0 0 0 0 0 0 0 0 0 0 0 0 0 127 0" result="hardAlpha"/>
<feOffset dy="2"/>
<feGaussianBlur stdDeviation="5"/>
<feComposite in2="hardAlpha" operator="out"/>
<feColorMatrix type="matrix" values="0 0 0 0 0 0 0 0 0 0 0 0 0 0 0 0 0 0 0.05 0"/>
<feBlend mode="normal" in2="BackgroundImageFix" result="effect1_dropShadow_604_7771"/>
<feBlend mode="normal" in="SourceGraphic" in2="effect1_dropShadow_604_7771" result="shape"/>
</filter>
</defs>
</svg>
